# xmcd
#
# Track frame offsets:
#	150
#	16952
#	34049
#	52229
#	67549
#	83748
#	100554
#	117358
#	134424
#	152648
#	167995
#	184271
#
# Disc length: 2681 seconds
#
# Revision: 1
# Processed by: cddbd v1.5.2PL0 Copyright (c) Steve Scherf et al.
# Submitted via: audiograbber 1.83.01
#
DISCID=950a770c
DTITLE=Karaoke Country Hot Hits - Country Chartbusters Vol.194
DYEAR=1900
DGENRE=Karaoke
TTITLE0=Everybody's Gott Grouw Up Sometime (Guide Vocals)
TTITLE1=I'm Holdin' on to Love/To Save My Life (Guide Vocals)
TTITLE2=I Pray For You (Guide Vocals)
TTITLE3=BFD (Guide Vocals)
TTITLE4=The Visit (Guide Vocals)
TTITLE5=That's What Love Demands (Guide Vocals)
TTITLE6=Everybody's Gotta Grow Up Sometime (Performance Tracks)
TTITLE7=I'm Holdin' On To Love/To Save My Life (Performance Tracks)
TTITLE8=I Pray For You (Performance Tracks)
TTITLE9=BFD (Performance Tracks)
TTITLE10=The Visit (Performance Tracks)
TTITLE11=That's What Love Demands (Performance Tracks)
EXTD=
EXTT0=
EXTT1=
EXTT2=
EXTT3=
EXTT4=
EXTT5=
EXTT6=
EXTT7=
EXTT8=
EXTT9=
EXTT10=
EXTT11=
PLAYORDER=
